<?xml version="1.0" encoding="utf-8"?>
<!-- Generator: Adobe Illustrator 24.1.1, SVG Export Plug-In . SVG Version: 6.00 Build 0)  -->
<svg version="1.1" id="Capa_1" xmlns="http://www.w3.org/2000/svg" xmlns:xlink="http://www.w3.org/1999/xlink" x="0px" y="0px"
	 viewBox="0 0 350 350" style="enable-background:new 0 0 350 350;" xml:space="preserve">
<style type="text/css">
	.st0{fill:none;stroke:#FF3333;stroke-width:5;stroke-miterlimit:10;}
	.st1{fill:#006837;}
	.st2{fill:#FF3333;}
	.st3{fill:#FFFFFF;}
</style>
<g>
	<circle class="st0" cx="174.96" cy="185.25" r="137.25"/>
	<g>
		<g>
			<circle class="st1" cx="219.6" cy="213.14" r="17.62"/>
		</g>
		<g>
			<g>
				<path class="st1" d="M248.1,197.33c-5.58,25.91-31.54,40.76-57.03,35.97c-7.55-1.42-10.78,10.14-3.19,11.57
					c31.58,5.94,64.77-11.72,71.79-44.35C261.3,192.98,249.73,189.77,248.1,197.33L248.1,197.33z"/>
			</g>
		</g>
		<g>
			<path class="st1" d="M239.96,262.94l20.04-13.14c3.35-2.2,3.53-7.87,0.39-12.66l-18.41-17.25l-23.75,15.57l7.07,21.62
				C229.21,263.06,235.77,265.68,239.96,262.94z"/>
		</g>
	</g>
	<g>
		<g>
			<circle class="st1" cx="122.51" cy="213.6" r="17.62"/>
		</g>
		<g>
			<g>
				<path class="st1" d="M82.95,200.77c7.3,32.55,40.6,50,72.14,43.79c7.57-1.49,4.37-13.06-3.19-11.57
					c-25.43,5.01-51.57-9.52-57.38-35.4C92.83,190.05,81.26,193.24,82.95,200.77L82.95,200.77z"/>
			</g>
		</g>
		<g>
			<path class="st1" d="M103.23,263.08l-20.15-12.96c-3.37-2.17-3.6-7.84-0.5-12.65l18.26-17.41l23.88,15.36l-6.88,21.68
				C113.98,263.1,107.43,265.78,103.23,263.08z"/>
		</g>
	</g>
	<path class="st2" d="M248.77,124.19c-0.17,10.22-4.82,21.47-11.44,32.02c-9.81,15.62-22.72,28.43-37.08,39.77
		c-8.46,6.68-17.43,12.71-26.17,19.05c-1.06,0.77-1.94,1.14-3.29,0.24c-17.93-11.85-34.96-24.79-49.45-40.79
		c-10.1-11.15-18.7-23.26-23.11-37.87c-3.21-10.64-3.66-21.3,1.2-31.62c8.41-17.87,30.33-24.88,48.51-15.61
		c10.32,6.52,14.12,10.36,21.73,20.02c0.17,0.37,3.3,4.51,3.38,4.02c0.13,0.29,1.61-2,1.61-2.04c3.05-4.55,3.72-4.78,6.72-8.86
		c6.82-9.25,15.85-15.35,27.48-16.79C231.13,82.97,248.81,98.98,248.77,124.19z"/>
	<g>
		<g>
			<path class="st3" d="M161.74,118.73c0.44-0.01,0.87-0.02,1.31-0.02c0.27,0.15,0.54,0.3,0.59,0.33c0.14,1.01,0.25,1.83,0.35,2.61
				c-0.3,0.24-0.58,0.46-0.73,0.57c1.33,1.84,4.15,0.7,5.23,2.94c0.06,0.13,0.39,0.13,0.6,0.2c0.61,0.21,1.25,0.37,1.83,0.64
				c1.01,0.47,1.35,0.29,1.4-0.79c0.06-1.4,1.36-2.25,2.63-1.69c0.89,0.39,1.74,1,2.66,1.15c1.61,0.26,3.18,1.27,4.93,0.3
				c0.37-0.2,1.42,0.07,1.6,0.41c0.85,1.63,1.47,3.38,2.24,5.05c0.63,1.37,1.34,2.69,2.03,4.03c1.17,2.26,2.35,4.5,3.52,6.76
				c0.08,0.15,0.07,0.35,0.14,0.5c0.09,0.19,0.19,0.4,0.34,0.54c0.85,0.78,1.78,1.47,2.56,2.31c0.57,0.61,1.12,1.35,1.36,2.13
				c0.37,1.22,0.88,1.58,2.13,1.25c1.91-0.51,3.84-0.95,5.75-1.41c0.01,0.61,0.02,1.22,0.03,1.84c-0.15,0.3-0.32,0.59-0.44,0.89
				c-1.07,2.66-1.92,5.43-3.98,7.59c-1.68,1.76-3.29,3.57-4.88,5.42c-1.45,1.69-3.05,3.36-1.88,5.91c0.06,0.13-0.09,0.35-0.05,0.51
				c0.16,0.84,0.35,1.68,0.54,2.51c0.18,0.78,0.43,1.55,0.55,2.34c0.12,0.77,0.03,1.58,0.16,2.35c0.24,1.45-0.5,2.45-1.49,3.29
				c-1.05,0.89-2.19,1.66-3.29,2.49c-0.91,0.69-1.32,1.37-0.72,2.63c0.84,1.79,0.11,3.32-1.58,4.39c-0.39,0.25-0.64,0.83-0.8,1.31
				c-0.26,0.78-0.19,1.74-0.62,2.37c-1.06,1.54-2.27,2.99-3.54,4.36c-1.35,1.46-3,2.29-5.11,2.21c-1.01-0.04-2.02,0.49-3.05,0.59
				c-0.61,0.06-1.4-0.05-1.82-0.42c-0.38-0.33-0.4-1.11-0.5-1.71c-0.09-0.54,0.05-1.15-0.14-1.64c-0.96-2.55-3.02-4.63-3.14-7.53
				c-0.1-2.45-1.36-4.45-2.41-6.57c-0.45-0.91-0.63-2.16-0.44-3.15c0.26-1.37,1-2.64,1.52-3.96c0.13-0.32,0.3-0.67,0.27-0.99
				c-0.16-1.35-0.19-2.75-0.63-4.01c-0.74-2.12-1.56-4.24-3.31-5.85c-0.56-0.52-1.01-1.43-1.03-2.17c-0.02-0.98,0.45-1.97,0.68-2.96
				c0.47-2-0.34-2.89-2.39-2.57c-0.95,0.15-1.59,0.02-1.93-1c-0.34-1-1.11-1.49-2.17-1.16c-1.36,0.43-2.68,0.99-4.04,1.43
				c-0.5,0.16-1.06,0.21-1.59,0.18c-1.43-0.08-2.86-0.37-4.2,0.48c-0.79,0.51-1.49,0.15-2.15-0.36c-1.24-0.95-2.53-1.86-3.75-2.84
				c-0.3-0.24-0.5-0.7-0.59-1.09c-0.37-1.62-1.37-2.59-2.94-3.04c-0.33-1.35-0.66-2.7-1-4.12c1.17-2.05,1.73-4.27,0.43-6.69
				c-0.17-0.32-0.11-0.9,0.07-1.25c0.84-1.66,1.67-3.34,2.68-4.9c0.65-1.01,1.34-2,2.63-2.55c1.12-0.48,1.99-1.43,1.93-2.98
				c-0.04-1.21,0.65-2.18,1.77-2.86c0.64-0.38,1.11-1.05,1.61-1.62c0.3-0.34,0.5-0.77,0.75-1.17c1.04,0.79,3.21,1.07,4,0.52
				c1.83-1.27,3.86-1.68,6.06-1.69C159.43,119.3,160.58,118.93,161.74,118.73z"/>
		</g>
		<g>
			<path class="st3" d="M202.75,173.21c0.51,1.84,1.35,3.09,0.6,4.91c-1.07,2.63-1.76,5.43-2.5,8.18c-0.46,1.69-1,2.46-2.33,2.55
				c-1.04,0.07-1.67-0.32-1.9-1.49c-0.32-1.63-0.52-3.14,0.68-4.54c0.24-0.27,0.15-0.91,0.07-1.36c-0.41-2.24-0.11-2.81,1.83-3.85
				c0.66-0.35,1.24-0.93,1.71-1.53C201.51,175.32,201.97,174.44,202.75,173.21z"/>
		</g>
	</g>
	<g>
		<g>
			<path d="M112.4,278.63c1.05,0.52,1.57,0.77,2.62,1.28c-0.15,6.31-0.13,9.5,0.11,15.93c-1.17-0.55-1.76-0.82-2.93-1.38
				c-0.02-1.32-0.03-1.98-0.04-3.29c-2.38-1.14-3.57-1.72-5.95-2.89c-0.97,0.84-1.45,1.26-2.44,2.1c-1.18-0.58-1.77-0.86-2.94-1.44
				C105.65,284.91,107.97,282.85,112.4,278.63z M112.21,282.77c-1.53,1.44-2.31,2.16-3.89,3.58c1.54,0.75,2.3,1.13,3.84,1.87
				C112.16,286.04,112.17,284.95,112.21,282.77z"/>
			<path d="M122.28,283.37c2.7,1.25,4.05,1.85,6.76,3c-0.32,1.02-0.48,1.53-0.8,2.54c-1.71-0.72-2.56-1.09-4.27-1.85
				c-0.34,0.99-0.51,1.48-0.85,2.47c1.73,0.77,2.6,1.15,4.34,1.87c-0.31,1-0.47,1.5-0.78,2.51c-1.77-0.73-2.65-1.11-4.41-1.89
				c-0.84,2.44-1.26,3.67-2.11,6.11c-1.13-0.5-1.69-0.75-2.81-1.26C119.32,291.47,120.31,288.77,122.28,283.37z"/>
			<path d="M131.54,287.39c1.11,0.44,1.66,0.66,2.78,1.08c1.53,0.57,2.58,1.09,3.17,1.59c0.59,0.5,1,1.13,1.25,1.9
				c0.25,0.77,0.28,1.59,0.07,2.47c-0.22,0.92-0.62,1.62-1.23,2.09c-0.61,0.47-1.42,0.71-2.42,0.71c0.76,2.95,1.17,4.42,2.05,7.35
				c-1.28-0.39-1.91-0.59-3.18-1.02c-0.78-2.82-1.14-4.23-1.81-7.06c-0.1-0.04-0.15-0.06-0.25-0.09c-0.65,2.35-0.97,3.52-1.61,5.87
				c-1.15-0.42-1.72-0.64-2.87-1.09C129.11,295.66,129.92,292.91,131.54,287.39z M132.67,293.83c0.34,0.13,0.51,0.19,0.86,0.32
				c0.87,0.32,1.5,0.42,1.88,0.31c0.38-0.11,0.64-0.42,0.77-0.93c0.08-0.3,0.06-0.6-0.04-0.88c-0.1-0.28-0.28-0.52-0.52-0.71
				c-0.24-0.19-0.72-0.42-1.43-0.68c-0.29-0.11-0.44-0.16-0.73-0.27C133.14,292.12,132.99,292.69,132.67,293.83z"/>
			<path d="M142.41,291.16c1.07,0.31,1.6,0.45,2.68,0.73c-1.12,5.64-1.68,8.45-2.79,14.09c-1.18-0.29-1.76-0.45-2.93-0.78
				C140.58,299.59,141.19,296.78,142.41,291.16z"/>
			<path d="M161.4,297.05c-0.86,0.65-1.3,0.98-2.18,1.62c-1.23-1.51-2.67-2.37-4.36-2.59c-1.43-0.19-2.69,0.1-3.81,0.86
				c-1.12,0.76-1.8,1.81-2.02,3.16c-0.16,0.95-0.07,1.83,0.26,2.64c0.33,0.81,0.88,1.5,1.65,2.05c0.77,0.55,1.67,0.89,2.7,1.02
				c0.87,0.11,1.69,0.07,2.45-0.14c0.76-0.21,1.61-0.66,2.55-1.35c0.73,0.85,1.1,1.28,1.85,2.12c-1.27,0.92-2.46,1.53-3.56,1.81
				c-1.1,0.28-2.33,0.34-3.69,0.16c-2.5-0.33-4.43-1.37-5.74-3.07s-1.73-3.66-1.34-5.84c0.26-1.41,0.82-2.58,1.68-3.54
				s1.95-1.64,3.28-2.1c1.33-0.45,2.71-0.59,4.13-0.41c1.21,0.16,2.35,0.55,3.42,1.17C159.74,295.25,160.65,296.05,161.4,297.05z"/>
			<path d="M168.6,295.01c1.14,0.05,1.71,0.07,2.86,0.11c2.11,5.81,3.27,8.7,5.79,14.43c-1.28,0.01-1.92,0.01-3.19-0.01
				c-0.49-1.19-0.73-1.78-1.21-2.98c-2.59-0.05-3.89-0.1-6.47-0.24c-0.58,1.15-0.88,1.73-1.48,2.88c-1.28-0.08-1.91-0.13-3.19-0.23
				C164.67,303.44,166.05,300.64,168.6,295.01z M169.9,298.88c-0.89,1.94-1.34,2.91-2.28,4.84c1.67,0.08,2.51,0.12,4.18,0.16
				C171.02,301.88,170.64,300.88,169.9,298.88z"/>
			<path d="M199.05,295.89c-0.69,0.87-1.04,1.3-1.75,2.16c-1.45-1.11-2.99-1.57-4.68-1.4c-1.47,0.15-2.66,0.72-3.59,1.74
				c-0.93,1.01-1.36,2.18-1.27,3.52c0.1,1.38,0.71,2.52,1.88,3.39s2.56,1.24,4.17,1.07c1.04-0.11,1.9-0.41,2.57-0.89
				c0.67-0.48,1.16-1.17,1.48-2.06c-1.81,0.23-2.71,0.34-4.52,0.52c-0.1-1.02-0.16-1.53-0.26-2.56c3.1-0.32,4.65-0.51,7.73-0.97
				c0.04,0.24,0.07,0.36,0.11,0.6c0.19,1.24,0.01,2.47-0.54,3.69s-1.37,2.2-2.45,2.93c-1.08,0.73-2.41,1.19-3.97,1.35
				c-1.67,0.17-3.2-0.02-4.55-0.57s-2.44-1.4-3.26-2.55c-0.82-1.15-1.25-2.42-1.33-3.81c-0.1-1.9,0.49-3.58,1.71-5.07
				c1.45-1.77,3.36-2.75,5.81-3c1.28-0.13,2.5-0.04,3.67,0.28C196.99,294.54,198,295.08,199.05,295.89z"/>
			<path d="M202.13,293.05c1.11-0.18,1.67-0.28,2.76-0.49c1.04,5.65,1.56,8.48,2.59,14.13c-1.2,0.23-1.8,0.33-3.01,0.53
				C203.53,301.55,203.06,298.72,202.13,293.05z"/>
			<path d="M206.86,292.16c1.11-0.24,1.66-0.37,2.75-0.65c2.28,3.63,3.47,5.41,5.98,8.91c0.5-4.4,0.68-6.61,0.87-11
				c1.03-0.36,1.54-0.56,2.56-0.95c-0.1,6.2-0.31,9.31-1.01,15.55c-1.12,0.35-1.69,0.52-2.82,0.84
				C211.64,299.9,210,297.35,206.86,292.16z"/>
			<path d="M221.01,287.67c2.81-1.18,4.19-1.83,6.94-3.24c0.43,0.99,0.64,1.48,1.06,2.47c-1.84,0.94-2.77,1.39-4.64,2.23
				c0.37,0.97,0.55,1.46,0.92,2.43c1.92-0.86,2.87-1.31,4.75-2.26c0.42,0.97,0.63,1.45,1.05,2.42c-1.93,0.97-2.9,1.43-4.87,2.3
				c0.54,1.42,0.8,2.13,1.34,3.54c2.04-0.89,3.04-1.37,5.04-2.36c0.43,0.99,0.64,1.49,1.07,2.48c-3.11,1.54-4.7,2.26-7.93,3.56
				C223.84,295.81,222.9,293.1,221.01,287.67z"/>
			<path d="M230.35,283.16c1.01-0.55,1.52-0.83,2.54-1.42c1.39-0.8,2.45-1.27,3.17-1.37c0.72-0.1,1.42,0.03,2.09,0.39
				c0.67,0.36,1.22,0.95,1.63,1.75c0.44,0.85,0.6,1.68,0.49,2.5c-0.12,0.82-0.52,1.63-1.21,2.42c2.41,1.56,3.64,2.32,6.1,3.81
				c-1.11,0.7-1.67,1.04-2.81,1.71c-2.33-1.47-3.49-2.21-5.76-3.75c-0.09,0.05-0.14,0.08-0.23,0.13c1.06,2.21,1.6,3.32,2.66,5.53
				c-1.06,0.59-1.59,0.87-2.66,1.44C233.96,291.04,232.75,288.41,230.35,283.16z M235.2,286.92c0.31-0.18,0.47-0.26,0.78-0.44
				c0.79-0.45,1.28-0.88,1.48-1.26c0.19-0.38,0.17-0.81-0.07-1.29c-0.14-0.28-0.34-0.48-0.59-0.61c-0.25-0.12-0.52-0.16-0.81-0.1
				c-0.29,0.05-0.76,0.27-1.41,0.64c-0.27,0.15-0.4,0.23-0.67,0.38C234.42,285.31,234.68,285.85,235.2,286.92z"/>
			<path d="M248.15,274.33c-0.41,1.14-0.61,1.71-1.01,2.85c-1.11-0.43-2.01-0.43-2.67,0.01c-0.32,0.22-0.54,0.48-0.66,0.78
				c-0.11,0.31-0.11,0.57,0,0.78c0.11,0.21,0.3,0.37,0.55,0.46c0.33,0.12,1.24,0.28,2.69,0.42c1.35,0.14,2.19,0.22,2.5,0.28
				c0.76,0.15,1.37,0.37,1.82,0.68c0.45,0.3,0.81,0.72,1.09,1.26c0.55,1.04,0.65,2.16,0.29,3.35c-0.36,1.19-1.12,2.2-2.3,3
				c-0.92,0.63-1.85,0.95-2.79,0.96c-0.93,0.01-1.9-0.31-2.91-0.95c0.58-1.03,0.87-1.55,1.44-2.59c1.23,0.72,2.26,0.8,3.07,0.25
				c0.42-0.29,0.71-0.65,0.87-1.09c0.16-0.44,0.15-0.82-0.02-1.14c-0.15-0.29-0.42-0.5-0.79-0.64c-0.37-0.14-1.09-0.25-2.15-0.35
				c-2.02-0.18-3.4-0.47-4.14-0.82c-0.74-0.35-1.27-0.84-1.6-1.45c-0.47-0.89-0.53-1.87-0.19-2.94c0.34-1.07,1.01-1.94,2.02-2.61
				c0.65-0.43,1.35-0.7,2.1-0.8S247.05,274.03,248.15,274.33z"/>
		</g>
	</g>
</g>
</svg>
